<?xml version="1.0" standalone="no"?>
<!DOCTYPE svg PUBLIC "-//W3C//DTD SVG 20010904//EN"
 "http://www.w3.org/TR/2001/REC-SVG-20010904/DTD/svg10.dtd">
<svg version="1.0" xmlns="http://www.w3.org/2000/svg"
 width="500.000000pt" height="500.000000pt" viewBox="0 0 500.000000 500.000000"
 preserveAspectRatio="xMidYMid meet">

<g transform="translate(0.000000,500.000000) scale(0.100000,-0.100000)"
fill="#000000" stroke="none">
<path d="M1240 3956 c0 -14 5 -26 10 -26 6 0 10 9 10 19 0 11 -4 23 -10 26 -6
4 -10 -5 -10 -19z"/>
<path d="M1544 3601 c7 -11 46 -35 46 -28 0 3 -12 12 -26 22 -15 9 -23 12 -20
6z"/>
<path d="M1250 3554 c1 -13 59 -81 60 -68 0 6 -13 26 -30 44 -16 18 -30 29
-30 24z"/>
<path d="M1660 3241 c0 -5 5 -13 10 -16 6 -3 10 -2 10 4 0 5 -4 13 -10 16 -5
3 -10 2 -10 -4z"/>
<path d="M1864 3195 c15 -14 30 -25 33 -25 4 0 -4 11 -17 25 -13 14 -28 25
-33 25 -6 0 2 -11 17 -25z"/>
<path d="M1681 3198 c-1 -9 3 -28 9 -42 8 -22 7 -26 -8 -27 -12 0 -10 -3 7
-10 13 -5 26 -8 28 -6 2 3 -5 26 -16 53 -11 27 -20 41 -20 32z"/>
<path d="M2291 3194 c0 -11 3 -14 6 -6 3 7 2 16 -1 19 -3 4 -6 -2 -5 -13z"/>
<path d="M1579 3171 c13 -12 28 -21 35 -21 12 0 -5 14 -39 31 -16 8 -15 6 4
-10z"/>
<path d="M1775 3143 c66 -66 180 -209 192 -240 6 -16 23 -17 23 -2 0 24 -174
223 -225 259 -11 7 -6 0 10 -17z"/>
<path d="M2040 3159 c0 -8 7 -24 15 -35 18 -24 19 -7 0 26 -9 16 -14 19 -15 9z"/>
<path d="M2275 3133 c-3 -21 -9 -49 -11 -63 -4 -18 -3 -21 4 -10 10 16 26 110
19 110 -3 0 -8 -17 -12 -37z"/>
<path d="M2331 3113 c-14 -48 -14 -63 -1 -63 6 0 10 7 10 16 0 8 4 13 9 10 5
-3 14 1 21 9 9 11 8 16 -8 26 -11 7 -18 19 -15 26 3 7 3 13 0 13 -4 0 -11 -17
-16 -37z"/>
<path d="M2180 3120 c0 -5 7 -7 15 -4 8 4 15 8 15 10 0 2 -7 4 -15 4 -8 0 -15
-4 -15 -10z"/>
<path d="M1997 3099 c7 -7 15 -10 18 -7 3 3 -2 9 -12 12 -14 6 -15 5 -6 -5z"/>
<path d="M2425 3071 c-3 -6 -12 -29 -20 -51 -13 -37 -13 -41 0 -36 14 5 78
-30 83 -46 1 -5 5 -8 8 -7 4 0 10 -4 13 -9 3 -5 24 -20 46 -34 39 -24 42 -25
62 -9 33 28 37 56 10 74 -16 10 -28 12 -34 6 -11 -11 -43 -2 -43 13 0 5 -8 7
-17 4 -22 -6 -55 17 -51 36 3 13 -34 68 -45 68 -3 0 -8 -4 -12 -9z"/>
<path d="M2672 2845 c-31 -44 -31 -44 -6 -35 17 7 23 7 19 0 -3 -6 -1 -10 5
-10 6 0 15 -10 20 -22 6 -13 14 -30 19 -38 5 -8 17 -33 26 -54 22 -50 92 -126
116 -126 13 0 16 -5 12 -16 -4 -11 8 -6 34 13 23 15 39 31 36 35 -2 4 2 5 10
2 37 -14 21 20 -42 89 l-70 76 -15 -25 c-20 -30 -42 -31 -57 -3 -9 17 -7 25
10 43 l21 22 -48 47 c-26 26 -50 47 -53 47 -3 0 -19 -20 -37 -45z m248 -270
c-7 -9 -15 -13 -19 -10 -3 3 1 10 9 15 21 14 24 12 10 -5z"/>
<path d="M3006 2541 l-27 -28 25 -7 c14 -3 26 -11 26 -16 0 -6 5 -10 11 -10 6
0 54 -44 107 -99 54 -54 117 -112 142 -129 53 -35 150 -124 150 -138 1 -26 17
-35 43 -23 21 9 24 16 17 29 -5 10 -7 20 -4 23 12 11 -24 58 -92 121 -40 36
-77 66 -82 66 -6 0 -17 8 -24 18 -7 9 -20 22 -29 27 -60 38 -163 122 -189 155
-18 22 -35 40 -39 40 -4 0 -20 -13 -35 -29z"/>
<path d="M2104 2498 c-4 -6 -2 -14 4 -16 6 -2 17 -22 23 -45 l12 -42 7 31 c4
17 10 36 14 43 4 6 2 18 -4 26 -15 18 -46 20 -56 3z"/>
<path d="M1578 2493 c7 -3 16 -2 19 1 4 3 -2 6 -13 5 -11 0 -14 -3 -6 -6z"/>
<path d="M1770 2440 c-30 -10 -52 -18 -48 -19 11 -2 120 28 126 34 10 10 -24
4 -78 -15z"/>
<path d="M2300 2405 c-15 -17 -5 -65 19 -97 10 -13 28 -56 41 -96 12 -40 26
-75 30 -77 5 -3 2 16 -6 43 -8 26 -13 61 -10 77 7 35 -4 55 -30 59 -26 4 -30
32 -5 39 27 7 37 33 21 52 -16 19 -44 19 -60 0z"/>
<path d="M1780 2394 l-65 -13 65 6 c36 3 69 9 75 14 11 11 10 11 -75 -7z"/>
<path d="M1818 2363 c7 -3 16 -2 19 1 4 3 -2 6 -13 5 -11 0 -14 -3 -6 -6z"/>
<path d="M1815 2304 c-40 -14 -40 -14 -5 -9 19 3 39 10 44 15 12 12 11 12 -39
-6z"/>
<path d="M2975 2310 c-13 -6 -15 -9 -5 -9 8 0 22 4 30 9 18 12 2 12 -25 0z"/>
<path d="M2910 2284 c-33 -13 -33 -14 -5 -8 17 3 34 10 40 15 11 11 8 11 -35
-7z"/>
<path d="M2594 2274 c-6 -3 5 -21 25 -42 20 -20 41 -46 48 -57 10 -17 10 -15
2 11 -12 38 -60 94 -75 88z"/>
<path d="M2074 2258 c-4 -7 -9 -44 -10 -83 -1 -50 1 -62 6 -42 5 16 21 44 36
64 21 27 25 40 17 52 -13 21 -39 26 -49 9z"/>
<path d="M2337 2103 c-3 -26 -8 -59 -11 -73 -5 -21 -4 -21 8 5 21 43 30 95 19
106 -7 7 -12 -6 -16 -38z"/>
<path d="M3538 2054 c-16 -8 -28 -20 -28 -27 1 -7 25 -30 54 -52 30 -22 52
-43 49 -47 -2 -5 3 -8 11 -8 11 0 16 -9 16 -26 0 -21 4 -25 18 -19 9 3 45 16
80 27 35 11 61 22 59 24 -2 3 -17 0 -32 -6 -36 -14 -59 -5 -52 19 8 33 -8 47
-38 33 -39 -18 -68 0 -60 38 5 22 1 31 -17 44 -27 19 -26 19 -60 0z"/>
<path d="M1949 1953 c-13 -16 -12 -17 4 -4 9 7 17 15 17 17 0 8 -8 3 -21 -13z"/>
<path d="M2799 1943 c-6 -16 -11 -43 -12 -60 -1 -18 -6 -33 -10 -33 -5 0 -6
-4 -2 -9 3 -5 1 -12 -5 -16 -5 -3 -10 -11 -10 -17 0 -12 76 71 99 108 12 19
12 25 2 38 -21 25 -50 19 -62 -11z"/>
<path d="M1841 1937 c-13 -21 -12 -21 5 -5 10 10 16 20 13 22 -3 3 -11 -5 -18
-17z"/>
<path d="M2616 1861 c-4 -5 -1 -11 6 -13 6 -2 17 -40 23 -84 l11 -79 8 82 c4
46 5 87 1 93 -8 12 -42 13 -49 1z"/>
<path d="M2029 1843 c-13 -16 -12 -17 4 -4 9 7 17 15 17 17 0 8 -8 3 -21 -13z"/>
<path d="M3759 1843 l-26 -16 39 -41 38 -41 -82 -6 -83 -5 95 -3 c52 -1 118
-6 145 -11 28 -4 51 -7 52 -6 1 1 -22 30 -51 63 -30 34 -56 60 -59 57 -2 -2
-10 2 -17 11 -15 19 -19 18 -51 -2z"/>
<path d="M3375 1720 c-4 -6 19 -10 62 -9 47 0 62 3 48 9 -28 12 -103 12 -110
0z"/>
<path d="M3775 1680 c-12 -5 1 -6 35 -3 30 3 57 7 59 9 9 8 -75 2 -94 -6z"/>
<path d="M3443 1673 c-19 -7 -16 -21 8 -28 17 -6 18 -9 7 -23 -11 -13 -10 -15
5 -9 9 3 17 2 17 -4 0 -6 5 -7 10 -4 6 3 10 1 10 -5 0 -7 7 -9 16 -6 8 3 13 2
11 -2 -2 -4 4 -15 15 -24 22 -21 23 -9 4 36 -22 52 -69 83 -103 69z"/>
<path d="M2437 1599 c-21 -34 -37 -63 -35 -65 6 -6 79 107 76 117 -2 5 -20
-18 -41 -52z"/>
<path d="M3930 1630 c0 -13 11 -13 30 0 12 8 11 10 -7 10 -13 0 -23 -4 -23
-10z"/>
<path d="M2290 1587 l-33 -42 39 37 c21 21 36 40 33 43 -3 3 -21 -14 -39 -38z"/>
<path d="M2903 1599 c6 -22 5 -23 -8 -6 -9 12 -15 15 -20 7 -4 -6 1 -17 11
-24 14 -11 16 -22 11 -62 l-6 -49 25 50 c28 58 28 98 0 103 -15 3 -18 0 -13
-19z"/>
<path d="M4019 1590 c-19 -15 -20 -19 -8 -20 14 0 49 -39 49 -55 0 -3 -35 -5
-77 -5 -43 0 -84 -4 -91 -8 -7 -5 38 -7 100 -4 62 2 114 6 116 7 6 5 -36 81
-51 93 -11 10 -19 8 -38 -8z"/>
<path d="M2881 1554 c0 -11 3 -14 6 -6 3 7 2 16 -1 19 -3 4 -6 -2 -5 -13z"/>
<path d="M3403 1523 c-16 -6 -17 -39 -1 -49 7 -4 8 -3 4 4 -4 7 -5 12 -3 12
16 0 99 -35 132 -56 l40 -25 -42 38 c-83 76 -103 88 -130 76z"/>
<path d="M4099 1443 c5 -10 10 -22 11 -28 4 -16 11 -37 26 -77 l14 -38 -28 0
c-20 -1 -23 -3 -12 -9 20 -12 98 -25 85 -14 -5 4 -11 13 -11 18 -5 37 -39 125
-50 129 -8 3 -14 12 -14 21 0 8 -7 15 -15 15 -12 0 -13 -4 -6 -17z"/>
<path d="M3870 1353 c0 -6 31 -13 69 -17 37 -3 88 -13 112 -21 24 -9 39 -12
34 -6 -29 27 -215 65 -215 44z"/>
<path d="M3270 1267 c0 -3 9 -26 20 -52 11 -26 21 -63 21 -83 l1 -37 8 40 c4
22 5 60 1 85 -5 37 -10 46 -29 48 -12 2 -22 1 -22 -1z"/>
<path d="M3266 1207 c3 -10 9 -15 12 -12 3 3 0 11 -7 18 -10 9 -11 8 -5 -6z"/>
<path d="M4154 1105 c-3 -25 -11 -48 -16 -51 -5 -4 -23 4 -40 16 -16 12 -31
20 -34 18 -4 -5 70 -68 79 -68 9 0 18 35 23 83 5 60 -3 61 -12 2z"/>
<path d="M3740 1132 c0 -6 4 -12 9 -14 6 -1 13 -16 16 -33 4 -16 13 -57 21
-90 l14 -60 -5 72 c-4 74 -20 123 -42 131 -7 2 -13 -1 -13 -6z"/>
<path d="M3430 1121 c0 -5 7 -16 15 -25 9 -8 16 -19 17 -23 0 -4 2 -12 4 -18
2 -5 8 -35 13 -65 8 -47 9 -42 4 35 -3 50 -7 93 -10 98 -6 10 -43 9 -43 -2z"/>
<path d="M3705 1101 c-4 -12 -2 -27 3 -34 5 -7 20 -40 32 -75 13 -34 25 -60
27 -58 8 8 -14 98 -35 145 -18 39 -21 41 -27 22z"/>
<path d="M3411 1100 c0 -8 4 -22 9 -30 12 -18 12 -2 0 25 -6 13 -9 15 -9 5z"/>
<path d="M3976 1003 c74 -89 91 -106 68 -68 l-18 30 32 -29 c18 -17 32 -25 32
-19 0 6 -14 22 -32 35 -17 13 -52 44 -78 71 -67 68 -69 58 -4 -20z"/>
<path d="M3136 873 c-6 -14 -5 -15 5 -6 7 7 10 15 7 18 -3 3 -9 -2 -12 -12z"/>
<path d="M3841 755 c-1 -6 5 -19 13 -30 7 -11 21 -44 30 -72 10 -29 21 -53 26
-53 9 0 -2 49 -16 72 -6 10 -3 9 9 -1 27 -22 20 -1 -10 28 -16 15 -33 35 -40
46 -6 11 -12 15 -12 10z"/>
</g>
</svg>
